<?xml version="1.0" encoding="UTF-8"?>
<!DOCTYPE svg PUBLIC "-//W3C//DTD SVG 1.1//EN" "http://www.w3.org/Graphics/SVG/1.1/DTD/svg11.dtd">
<!-- Creator: CorelDRAW -->
<svg xmlns="http://www.w3.org/2000/svg" xml:space="preserve" width="1.70666in" height="1.70666in" version="1.1" style="shape-rendering:geometricPrecision; text-rendering:geometricPrecision; image-rendering:optimizeQuality; fill-rule:evenodd; clip-rule:evenodd"
viewBox="0 0 1707 1707"
 xmlns:xlink="http://www.w3.org/1999/xlink">
 <defs>
  <style type="text/css">
   <![CDATA[
    .fil7 {fill:#E6E7E8}
    .fil6 {fill:#7C4252}
    .fil5 {fill:#9DFFFF}
    .fil2 {fill:#E19708}
    .fil4 {fill:#FB9C0B}
    .fil3 {fill:#FFB500}
    .fil1 {fill:#FFBA9C}
    .fil0 {fill:#FFD1BD}
   ]]>
  </style>
 </defs>
 <g id="Layer_x0020_1">
  <metadata id="CorelCorpID_0Corel-Layer"/>
  <g id="_442267880">
   <g>
    <path class="fil0" d="M287 1039c25,-12 53,-18 80,-18 35,0 68,9 97,27 35,-41 85,-64 140,-64 102,0 185,83 185,185 0,102 -83,185 -185,185 -42,0 -83,-15 -116,-41 -27,12 -117,50 -227,50 -65,0 -138,-14 -209,-54 -2,-2 -4,-5 -4,-9 -1,-13 -11,-333 121,-530 3,-5 9,-5 14,-3l93 55c4,2 6,5 5,10 0,1 -12,98 6,207z"/>
    <path class="fil1" d="M464 1048c0,0 31,3 59,52 3,5 9,7 14,4 5,-3 7,-9 4,-14 -22,-37 -46,-52 -61,-58 -6,5 -11,10 -16,16l0 0z"/>
    <path class="fil0" d="M272 839c-1,0 -3,0 -4,0l-88 -53c-6,1 -11,-3 -12,-8 -8,-42 -5,-123 64,-142 2,0 4,0 6,0l160 43c5,1 7,6 7,10 0,3 0,85 -64,107 -51,18 -60,37 -60,37 -1,5 -5,6 -9,6z"/>
    <path class="fil1" d="M618 1250c-9,0 -20,-1 -30,-3 -6,-1 -9,-7 -8,-11 1,-6 6,-10 11,-9 34,6 58,1 74,-12 20,-17 19,-45 19,-45 0,-6 3,-10 9,-10 6,0 10,3 10,9 0,2 2,38 -25,61 -13,12 -34,20 -60,20z"/>
    <path class="fil1" d="M454 1147c-4,0 -6,-2 -8,-5 -14,-23 -38,-16 -39,-16 -5,2 -11,-2 -12,-7 -2,-6 2,-12 7,-13 13,-3 44,-3 62,26 2,4 1,11 -4,14 -2,1 -4,1 -6,1z"/>
    <path class="fil1" d="M199 1279c0,0 0,0 -1,0 -69,-10 -74,-38 -75,-43 -1,-6 3,-11 9,-12 6,-1 10,4 11,9 0,1 7,18 57,25 6,1 10,6 9,11 0,6 -5,10 -10,10z"/>
   </g>
   <g>
    <path class="fil2" d="M1395 172c-13,0 -267,0 -279,0 -13,0 -24,-10 -24,-23l0 -78c0,-38 32,-71 71,-71l185 0c38,0 70,33 70,71l0 78c0,13 -10,23 -23,23z"/>
    <path class="fil3" d="M1530 297c-248,0 -882,0 -941,0 -13,0 -23,-11 -23,-24l0 -77c0,-39 32,-71 70,-71l847 0c39,0 71,32 71,71l0 77c0,13 -11,24 -24,24z"/>
    <path class="fil4" d="M1530 297c-248,0 -882,0 -941,0 -13,0 -23,-11 -23,-24l0 -36 988 0 0 36c0,13 -11,24 -24,24z"/>
    <path class="fil5" d="M1360 1706l-601 0c-58,0 -105,-47 -110,-107l-73 -1152c0,-6 2,-13 7,-17 4,-4 10,-6 17,-6l919 0c7,0 13,2 18,6 4,4 6,11 6,17l-73 1152c-4,62 -52,107 -110,107z"/>
    <path class="fil3" d="M1592 469l-1063 0c-39,0 -71,-32 -71,-71l0 -77c0,-39 32,-71 71,-71l1063 0c39,0 71,32 71,71l0 77c0,41 -32,71 -71,71z"/>
    <path class="fil6" d="M1360 1706c58,0 106,-45 110,-107l49 -771c-40,12 -96,23 -165,23 -87,0 -195,-17 -315,-75 -219,-102 -380,-38 -442,-3l13 199 3 48 18 282 3 47 15 250c5,60 52,107 110,107l601 0z"/>
    <path class="fil7" d="M1375 935l-113 0c-13,0 -24,-11 -24,-24 0,-13 11,-23 24,-23l113 0c13,0 24,10 24,23 0,13 -11,24 -24,24z"/>
    <path class="fil7" d="M1375 1242l-113 0c-13,0 -24,-11 -24,-23 0,-13 11,-24 24,-24l113 0c13,0 24,11 24,24 0,12 -11,23 -24,23z"/>
    <path class="fil7" d="M1375 1552l-113 0c-13,0 -24,-11 -24,-24 0,-13 11,-24 24,-24l113 0c13,0 24,11 24,24 0,13 -11,24 -24,24z"/>
    <path class="fil7" d="M1375 626l-113 0c-13,0 -24,-11 -24,-24 0,-13 11,-24 24,-24l113 0c13,0 24,11 24,24 0,13 -11,24 -24,24z"/>
    <path class="fil7" d="M791 1330c-13,0 -21,-8 -23,-21l-20 -322c0,-13 9,-24 22,-26 13,0 23,8 25,21l20 322c0,16 -9,26 -24,26 2,0 0,0 0,0z"/>
    <path class="fil7" d="M802 1474c-13,0 -22,-8 -24,-21l-4 -54c0,-13 9,-24 21,-26 13,0 24,9 26,22l5 53c0,15 -11,26 -24,26 0,0 0,0 0,0z"/>
   </g>
  </g>
 </g>
</svg>
