<svg xmlns="http://www.w3.org/2000/svg" xml:space="preserve" width="11.1111in" height="11.1111in" version="1.1" style="shape-rendering:geometricPrecision; text-rendering:geometricPrecision; image-rendering:optimizeQuality; fill-rule:evenodd; clip-rule:evenodd" viewBox="0 0 11111 11111" xmlns:xlink="http://www.w3.org/1999/xlink">
 <defs>
  <style type="text/css">
   
    .fil4 {fill:#116AA7}
    .fil2 {fill:#1583CF}
    .fil1 {fill:#1AA1FF}
    .fil3 {fill:#71C138}
    .fil0 {fill:#7DD63E}
   
  </style>
 </defs>
 <g id="Layer_x0020_1">
  <metadata id="CorelCorpID_0Corel-Layer"></metadata>
  <path class="fil0" d="M6690 3178c-1,0 -3,0 -5,0 -22,-1 -44,-1 -65,0 -4,0 -7,0 -11,0 -252,-11 -489,-115 -668,-294 -199,-199 -306,-474 -294,-754 3,-63 53,-113 116,-116 14,-1 28,-1 43,-1 268,0 521,105 711,295 199,198 306,473 294,754 -2,32 -16,62 -39,84 -22,21 -52,32 -82,32z" id="id_115" style="fill: rgb(235, 212, 9);"></path>
  <path class="fil0" d="M5560 3178c-2,0 -4,0 -5,0 -22,-1 -44,-1 -66,0 -3,0 -7,0 -10,0 -253,-11 -490,-115 -669,-294 -198,-199 -305,-474 -293,-754 2,-63 52,-113 115,-116 14,-1 29,-1 43,-1 269,0 522,105 712,295 198,198 305,473 293,754 -1,32 -15,62 -39,84 -22,21 -51,32 -81,32z" id="id_116" style="fill: rgb(232, 210, 9);"></path>
  <path class="fil0" d="M4429 3178c-2,0 -3,0 -5,0 -22,-1 -44,-1 -65,0 -4,0 -7,0 -11,0 -252,-11 -489,-115 -668,-294 -199,-199 -306,-474 -294,-754 3,-63 53,-113 116,-116 14,-1 28,-1 43,-1 268,0 521,105 711,295 199,198 306,473 294,754 -2,32 -16,62 -39,84 -22,21 -52,32 -82,32z" id="id_117" style="fill: rgb(230, 207, 5);"></path>
  <path class="fil0" d="M7821 3178c-2,0 -4,0 -5,0 -22,-1 -44,-1 -66,0 -3,0 -7,0 -10,0 -253,-11 -490,-115 -669,-294 -198,-199 -305,-474 -293,-754 2,-63 53,-113 115,-116 14,-1 29,-1 43,-1 269,0 522,105 712,295 198,198 305,473 293,754 -1,32 -15,62 -39,84 -22,21 -51,32 -81,32z" id="id_118" style="fill: rgb(224, 202, 4);"></path>
  <path class="fil0" d="M6936 4101c-14,0 -29,0 -43,-1 -62,-2 -113,-53 -115,-115 -12,-281 95,-556 293,-755 190,-190 443,-294 712,-294 14,0 29,0 43,0 63,3 113,53 115,116 12,281 -95,556 -293,754 -190,190 -443,295 -712,295z" id="id_119" style="fill: rgb(227, 205, 7);"></path>
  <path class="fil0" d="M5806 4101c-15,0 -29,0 -43,-1 -63,-2 -113,-53 -116,-115 -12,-281 95,-556 294,-755 190,-190 443,-294 711,-294 15,0 29,0 43,0 63,3 113,53 116,116 12,281 -95,556 -294,754 -190,190 -443,295 -711,295z" id="id_120" style="fill: rgb(219, 198, 9);"></path>
  <path class="fil0" d="M4675 4101c-14,0 -29,0 -43,-1 -63,-2 -113,-53 -115,-115 -12,-281 95,-556 293,-755 190,-190 443,-294 712,-294 14,0 29,0 43,0 63,3 113,53 115,116 12,281 -95,556 -293,754 -190,190 -443,295 -712,295z" id="id_121" style="fill: rgb(222, 200, 7);"></path>
  <path class="fil0" d="M3545 4101c-15,0 -29,0 -43,-1 -63,-2 -113,-53 -116,-115 -12,-281 95,-556 294,-755 190,-190 442,-294 711,-294 15,0 29,0 43,0 63,3 113,53 116,116 12,281 -95,556 -294,754 -190,190 -443,295 -711,295z" id="id_122" style="fill: rgb(224, 202, 4);"></path>
  <path class="fil1" d="M7260 9098l-3409 0c-67,0 -121,-54 -121,-121l0 -513c0,-67 54,-121 121,-121l3409 0c67,0 121,54 121,121l0 513c0,67 -54,121 -121,121z" id="id_123" style="fill: rgb(24, 191, 15);"></path>
  <path class="fil2" d="M7494 8584l-3877 0c-48,0 -91,-28 -110,-71l-1181 -2653c-17,-37 -13,-80 9,-115 22,-34 60,-55 101,-55l6239 0c41,0 79,21 101,55 22,35 26,78 9,115l-1181 2653c-19,43 -62,71 -110,71z" id="id_124" style="fill: rgb(12, 143, 6);"></path>
  <path class="fil3" d="M8990 3178l-5539 0c-67,0 -121,-54 -121,-121 0,-67 54,-121 121,-121l5539 0c67,0 121,54 121,121 0,67 -54,121 -121,121z" id="id_125" style="fill: rgb(214, 193, 8);"></path>
  <path class="fil0" d="M2786 3470c-286,0 -561,-121 -754,-331 -42,-46 -42,-117 0,-164 193,-210 468,-331 754,-331 286,0 560,121 754,331 42,47 42,118 0,164 -194,210 -468,331 -754,331z" id="id_126" style="fill: rgb(214, 194, 13);"></path>
  <path class="fil1" d="M8990 5932l-6869 0c-67,0 -121,-54 -121,-121l0 -690c0,-67 54,-121 121,-121l6869 0c67,0 121,54 121,121l0 690c0,67 -54,121 -121,121z" id="id_127" style="fill: rgb(22, 191, 13);"></path>
  <path class="fil4" d="M7169 8084l-3227 0c-48,0 -91,-28 -110,-72l-735 -1651c-17,-38 -13,-81 9,-115 22,-34 60,-55 101,-55l4697 0c41,0 79,21 101,55 23,34 26,77 9,115l-735 1651c-19,44 -62,72 -110,72z" id="id_128" style="fill: rgb(7, 82, 3);"></path>
  <path id="_341084808" class="fil0" d="M5556 0c3068,0 5555,2487 5555,5556 0,3068 -2487,5555 -5555,5555 -3069,0 -5556,-2487 -5556,-5555 0,-3069 2487,-5556 5556,-5556zm0 471c2808,0 5085,2276 5085,5085 0,2808 -2277,5085 -5085,5085 -2809,0 -5085,-2277 -5085,-5085 0,-2809 2276,-5085 5085,-5085z" style="fill: rgb(217, 196, 9);"></path>
  <path id="_341084880" class="fil1" d="M5556 314c2895,0 5241,2347 5241,5242 0,2895 -2346,5241 -5241,5241 -2895,0 -5242,-2346 -5242,-5241 0,-2895 2347,-5242 5242,-5242zm0 157c2808,0 5085,2276 5085,5085 0,2808 -2277,5085 -5085,5085 -2809,0 -5085,-2277 -5085,-5085 0,-2809 2276,-5085 5085,-5085z" style="fill: rgb(19, 194, 10);"></path>
 </g>
</svg>