<?xml version="1.0" encoding="UTF-8"?>
<!DOCTYPE svg PUBLIC "-//W3C//DTD SVG 1.1//EN" "http://www.w3.org/Graphics/SVG/1.1/DTD/svg11.dtd">
<!-- Creator: CorelDRAW -->
<svg xmlns="http://www.w3.org/2000/svg" xml:space="preserve" width="512px" height="512px" version="1.1" style="shape-rendering:geometricPrecision; text-rendering:geometricPrecision; image-rendering:optimizeQuality; fill-rule:evenodd; clip-rule:evenodd"
viewBox="0 0 512 512"
 xmlns:xlink="http://www.w3.org/1999/xlink">
 <defs>
  <style type="text/css">
   <![CDATA[
    .fil0 {fill:#4D4D4D}
    .fil2 {fill:#99A4AC}
    .fil3 {fill:#D9F2F2}
    .fil4 {fill:#FF700D}
    .fil1 {fill:#FFE600}
   ]]>
  </style>
 </defs>
 <g id="Layer_x0020_1">
  <metadata id="CorelCorpID_0Corel-Layer"/>
  <path class="fil0" d="M325 130c13,-11 45,-33 57,-41 14,-10 -1,-28 -11,-27 -5,1 -8,7 -8,7l-46 53 8 8zm157 334l-452 0c-16,0 -30,-14 -30,-31l0 -23c0,-4 3,-7 7,-7l50 0 0 -158c0,-30 24,-54 54,-54l119 0 73 -73 48 -56c2,-3 7,-12 18,-13 8,-2 19,3 26,10 7,9 12,28 -5,41 -25,17 -59,42 -61,45 -2,2 -10,12 2,31 4,6 -3,11 -7,15l77 0c30,0 54,24 54,54l0 158 50 0c4,0 7,3 7,7l0 23c0,17 -14,31 -30,31zm-411 -61l370 0 0 -158c0,-22 -18,-40 -40,-40l-91 0 -44 43c-11,12 -31,7 -42,-4 -11,-12 -14,-28 -7,-39l-25 0 0 54c0,31 -45,37 -53,7 -18,10 -41,-2 -41,-24 -8,5 -19,5 -27,0 0,1 0,2 0,3l0 158zm-57 14l0 16c0,9 7,17 16,17l452 0c9,0 16,-8 16,-17l0 -16 -484 0zm285 -222c1,-2 3,-3 4,-4l13 -12c-8,-17 -6,-30 -1,-39l-7 -7 -78 78c-11,11 12,39 26,27l43 -43zm-121 10l-26 0 0 54c0,17 26,17 26,0l0 -54zm-40 0l-26 0 0 38c0,17 26,17 26,0l0 -38zm-40 2c-10,3 -19,11 -23,20 8,9 23,4 23,-8l0 -12zm316 66c-4,0 -7,-3 -7,-7 0,-16 -12,-28 -27,-28 -9,0 -9,-14 0,-14 23,0 41,19 41,42 0,4 -3,7 -7,7zm-28 -178l0 0z"/>
  <path class="fil1" d="M401 205l-91 0 -44 43c-11,12 -31,7 -42,-4 -11,-12 -14,-28 -7,-39l-25 0 0 54c0,31 -45,37 -53,7 -18,10 -41,-2 -41,-24 -8,5 -19,5 -27,0 0,1 0,2 0,3l0 158 370 0 0 -158c0,-22 -18,-40 -40,-40zm13 68c-4,0 -7,-3 -7,-7 0,-16 -12,-28 -27,-28 -9,0 -9,-14 0,-14 23,0 41,19 41,42 0,4 -3,7 -7,7z"/>
  <path class="fil2" d="M325 130c13,-11 45,-33 57,-41 14,-10 -1,-28 -11,-27 -5,1 -8,7 -8,7l-46 53 8 8z"/>
  <path class="fil3" d="M316 179c-8,-17 -6,-30 -1,-39l-7 -7 -78 78c-11,11 12,39 26,27l43 -43c1,-2 3,-3 4,-4l13 -12z"/>
  <path class="fil4" d="M178 259l0 -54 -26 0 0 54c0,17 26,17 26,0z"/>
  <path class="fil4" d="M138 243l0 -38 -26 0 0 38c0,17 26,17 26,0z"/>
  <path class="fil4" d="M75 227c8,9 23,4 23,-8l0 -12c-10,3 -19,11 -23,20z"/>
  <path class="fil2" d="M498 417l-484 0 0 16c0,9 7,17 16,17l452 0c9,0 16,-8 16,-17l0 -16z"/>
 </g>
</svg>
