<?xml version="1.0" encoding="UTF-8"?>
<!DOCTYPE svg PUBLIC "-//W3C//DTD SVG 1.1//EN" "http://www.w3.org/Graphics/SVG/1.1/DTD/svg11.dtd">
<!-- Creator: CorelDRAW -->
<svg xmlns="http://www.w3.org/2000/svg" xml:space="preserve" width="7.11111in" height="7.11111in" version="1.1" style="shape-rendering:geometricPrecision; text-rendering:geometricPrecision; image-rendering:optimizeQuality; fill-rule:evenodd; clip-rule:evenodd"
viewBox="0 0 7111 7111"
 xmlns:xlink="http://www.w3.org/1999/xlink">
 <defs>
  <style type="text/css">
   <![CDATA[
    .fil0 {fill:#333333}
    .fil3 {fill:url(#id0)}
    .fil1 {fill:url(#id1)}
    .fil2 {fill:url(#id2)}
    .fil5 {fill:url(#id3)}
    .fil4 {fill:url(#id4)}
   ]]>
  </style>
  <linearGradient id="id0" gradientUnits="userSpaceOnUse" x1="2950.39" y1="5872.73" x2="2950.39" y2="3583.91">
   <stop offset="0" style="stop-opacity:1; stop-color:#E6E6E6"/>
   <stop offset="1" style="stop-opacity:1; stop-color:#CCCCCC"/>
  </linearGradient>
  <linearGradient id="id1" gradientUnits="userSpaceOnUse" x1="2950.39" y1="6612.49" x2="2950.39" y2="6869.26">
   <stop offset="0" style="stop-opacity:1; stop-color:#FF9911"/>
   <stop offset="1" style="stop-opacity:1; stop-color:#FF6600"/>
  </linearGradient>
  <linearGradient id="id2" gradientUnits="userSpaceOnUse" xlink:href="#id1" x1="2950.38" y1="6114.22" x2="2950.38" y2="6370.99">
  </linearGradient>
  <linearGradient id="id3" gradientUnits="userSpaceOnUse" xlink:href="#id1" x1="5212.77" y1="577.413" x2="5212.77" y2="4692.41">
  </linearGradient>
  <linearGradient id="id4" gradientUnits="userSpaceOnUse" x1="5255.75" y1="2901.57" x2="5255.75" y2="5068">
   <stop offset="0" style="stop-opacity:1; stop-color:red"/>
   <stop offset="1" style="stop-opacity:1; stop-color:#990000"/>
  </linearGradient>
 </defs>
 <g id="Layer_x0020_1">
  <metadata id="CorelCorpID_0Corel-Layer"/>
  <path class="fil0" d="M3318 3612c-243,-37 -492,-38 -735,0 -1116,171 -1982,1111 -2039,2261l4813 0c-57,-1150 -923,-2090 -2039,-2261zm2117 1456c62,-20 124,-43 187,-68 207,-133 323,-296 353,-500 77,-520 -415,-1185 -761,-1598 -54,259 -205,634 -624,917 -22,15 -42,30 -62,45 408,303 726,720 907,1204zm741 -376c638,-494 841,-1291 572,-2232 -72,111 -171,221 -294,259 -72,22 -146,-27 -155,-101 -1,-7 -96,-733 -638,-1328 -103,-113 -205,-198 -296,-272 -154,-128 -295,-244 -360,-441 -50,265 -50,619 -23,886 14,133 -170,185 -228,65 -92,-189 -190,-291 -268,-346 76,688 -110,1088 -199,1236 -50,82 -133,125 -228,117 -142,-13 -303,-145 -414,-267 -76,184 -100,388 -71,609 76,116 120,255 120,405 0,55 -6,109 -18,161 229,65 445,161 645,281 41,-37 85,-72 133,-105 580,-392 548,-997 547,-1003 -7,-114 136,-174 212,-87 440,505 1212,1429 963,2163zm-2854 -2054c11,-240 79,-465 204,-662 49,-77 170,-78 214,20 10,20 71,104 160,185 99,90 160,111 180,113 0,0 0,0 0,-1 84,-139 266,-542 139,-1276 -13,-74 44,-141 119,-141 26,0 197,7 386,190 1,-446 65,-891 319,-1048 88,-54 199,21 183,122 -65,397 55,495 293,691 97,80 206,171 321,296 421,463 594,987 661,1265 65,-83 124,-200 155,-289 38,-106 188,-107 227,-2 241,647 288,1238 140,1756 -130,452 -410,834 -809,1106 -175,120 -298,173 -487,255 -63,27 -155,60 -218,80 50,184 81,377 90,575l177 0c67,0 121,54 121,120l0 499c0,66 -54,120 -121,120l-2049 0 0 378c0,67 -54,121 -121,121l-1312 0c-66,0 -120,-54 -120,-121l0 -378 -2050 0c-66,0 -120,-54 -120,-120l0 -499c0,-66 54,-120 120,-120l178 0c52,-1158 849,-2124 1922,-2430 -102,-462 250,-905 726,-905 136,0 263,36 372,100zm-2902 3476l-175 0 0 257 5411 0 0 -257 -5236 0zm1995 755l1071 0 0 -257 -1071 0 0 257zm-1373 -1529c-84,0 -144,-87 -111,-166 333,-821 1130,-1360 2019,-1360 67,0 121,54 121,121 0,67 -54,121 -121,121 -792,0 -1497,474 -1796,1208 -19,47 -64,76 -112,76zm2399 -1952c67,-312 -171,-608 -491,-608 -320,0 -557,296 -491,608 324,-61 659,-61 982,0z"/>
  <polygon class="fil1" points="3486,6612 2415,6612 2415,6869 3486,6869 "/>
  <polygon class="fil2" points="245,6371 5656,6371 5656,6114 420,6114 245,6114 "/>
  <path class="fil3" d="M544 5873l4813 0c-57,-1150 -923,-2090 -2039,-2261 -243,-37 -492,-38 -735,0 -1116,171 -1982,1111 -2039,2261zm2527 -1938c0,67 -54,121 -121,121 -792,0 -1497,474 -1796,1208 -19,47 -64,76 -112,76 -84,0 -144,-87 -111,-166 333,-821 1130,-1360 2019,-1360 67,0 121,54 121,121z"/>
  <path class="fil4" d="M5214 2902c-54,259 -205,634 -624,917 -22,15 -42,30 -62,45 408,303 726,720 907,1204 62,-20 124,-43 187,-68 207,-133 323,-296 353,-500 77,-520 -415,-1185 -761,-1598z"/>
  <path class="fil5" d="M4454 3619c580,-392 548,-997 547,-1003 -7,-114 136,-174 212,-87 440,505 1212,1429 963,2163 638,-494 841,-1291 572,-2232 -72,111 -171,221 -294,259 -72,22 -146,-27 -155,-101 -1,-7 -96,-733 -638,-1328 -103,-113 -205,-198 -296,-272 -154,-128 -295,-244 -360,-441 -50,265 -50,619 -23,886 14,133 -170,185 -228,65 -92,-189 -190,-291 -268,-346 76,688 -110,1088 -199,1236 -50,82 -133,125 -228,117 -142,-13 -303,-145 -414,-267 -76,184 -100,388 -71,609 76,116 120,255 120,405 0,55 -6,109 -18,161 229,65 445,161 645,281 41,-37 85,-72 133,-105z"/>
 </g>
</svg>
